# xmcd
#
# Track frame offsets: 
#        150
#        22173
#        47271
#        68769
#        88542
#        105015
#        124413
#        157986
#        173484
#        193032
#        218655
#        241278
#        261501
#
# Disc length: 3864 seconds
#
# Revision: 0
# Processed by: cddbd v1.5.2PL0 Copyright (c) Steve Scherf et al.
# Submitted via: ExactAudioCopy v0.99pb4
#
DISCID=a40f160d
DTITLE=Little Al Thomas and The Deep Down Fools -  Not My Warden
DYEAR=2010
DGENRE=Chicago Blues
TTITLE0=Long Ride To The Southside 
TTITLE1=I'm Gonna Buy A Politician 
TTITLE2=Not My Warden!
TTITLE3=Ready Freddie 
TTITLE4=Wonder What You Think 
TTITLE5=Don't Take The Keys 
TTITLE6=Anger Heats My House 
TTITLE7=Cartoon Lover 
TTITLE8=Old Time Used To Be 
TTITLE9=Big Time Operators 
TTITLE10=West Side Wind 
TTITLE11=Reconsider Baby 
TTITLE12=Coronado
EXTD=
EXTT0=
EXTT1=
EXTT2=
EXTT3=
EXTT4=
EXTT5=
EXTT6=
EXTT7=
EXTT8=
EXTT9=
EXTT10=
EXTT11=
EXTT12=
PLAYORDER=
